<mxfile host="app.diagrams.net" modified="2023-12-01T22:40:20.363Z" agent="Mozilla/5.0 (Windows NT 10.0; Win64; x64; rv:120.0) Gecko/20100101 Firefox/120.0" version="22.1.5" etag="cd8jWggShzD6UjZ_d8sk" type="github">
  <diagram name="PÃ¡gina-1" id="3MC04wACICp7Q8MaPEOO">
    <mxGraphModel>
      <root>
        <mxCell id="0" />
        <mxCell id="1" parent="0" />
      </root>
    </mxGraphModel>
  </diagram>
</mxfile>
